<?xml version="1.0" encoding="utf-8"?>
<!-- Generator: Adobe Illustrator 16.0.0, SVG Export Plug-In . SVG Version: 6.00 Build 0)  -->
<!DOCTYPE svg PUBLIC "-//W3C//DTD SVG 1.1//EN" "http://www.w3.org/Graphics/SVG/1.1/DTD/svg11.dtd">
<svg version="1.1" id="Layer_1" xmlns="http://www.w3.org/2000/svg" xmlns:xlink="http://www.w3.org/1999/xlink" x="0px" y="0px"
	 width="576.057px" height="576.058px" viewBox="0 0 576.057 576.058" enable-background="new 0 0 576.057 576.058"
	 xml:space="preserve">
<path fill="#E83707" d="M576.057,288.025c0,5.818-0.173,11.597-0.518,17.331c-0.838,14.272-2.727,28.262-5.581,41.895
	c-25.049,119.853-124.595,212.352-248,226.828c-11.13,1.307-22.451,1.979-33.926,1.979c-15.251,0-30.228-1.184-44.838-3.475
	C105.408,551.052,0,431.846,0,288.025C0,128.954,128.954,0,288.032,0C447.103,0,576.057,128.954,576.057,288.025z"/>
<path fill="#C92B06" d="M575.539,305.356c-0.838,14.272-2.727,28.262-5.581,41.895c-25.049,119.853-124.595,212.352-248,226.828
	c-11.13,1.307-22.451,1.979-33.926,1.979c-15.251,0-30.228-1.184-44.838-3.475L95.11,424.492c-3.181-3.577-5.126-8.288-5.126-13.472
	V162.502c0-11.2,9.069-20.263,20.269-20.263h162.125c5.242,0,10.029,1.99,13.619,5.262c0.069,0.051,0.122,0.108,0.179,0.166
	l1.03,1.029c0.051,0.052,0.108,0.115,0.166,0.173l19.168,19.162l34.784,0.589c0,0,26.547,0,45.517,21.812
	c2.342,2.637,18.188,17.76,55.353,18.47H472.9c4.045,0,7.705,1.606,10.395,4.211c0.115,0.103,0.229,0.218,0.333,0.326
	L575.539,305.356z"/>
<g>
	<path fill="#FFFFFF" d="M287.373,148.872c-0.057-0.058-0.113-0.121-0.17-0.179l-1.026-1.025c-0.056-0.058-0.113-0.113-0.178-0.17
		c-3.597-3.266-8.38-5.262-13.625-5.262h-162.12c-11.201,0-20.268,9.067-20.268,20.269v248.517c0,5.181,1.94,9.892,5.124,13.472
		c0.525,0.591,1.083,1.148,1.665,1.666c3.58,3.191,8.3,5.132,13.48,5.132h162.12c11.192,0,20.268-9.075,20.268-20.269V162.505
		C292.642,157.253,290.646,152.475,287.373,148.872z M190.429,148.281c3.176,0,5.746,2.57,5.746,5.746s-2.57,5.746-5.746,5.746
		c-3.176,0-5.746-2.57-5.746-5.746S187.253,148.281,190.429,148.281z M173.127,148.281c3.176,0,5.746,2.57,5.746,5.746
		s-2.57,5.746-5.746,5.746c-3.176,0-5.746-2.57-5.746-5.746S169.951,148.281,173.127,148.281z M156.771,148.281
		c3.176,0,5.746,2.57,5.746,5.746s-2.57,5.746-5.746,5.746c-3.176,0-5.746-2.57-5.746-5.746S153.595,148.281,156.771,148.281z
		 M127.847,147.329c12.082,0,21.868,9.795,21.868,21.867c0,12.082-9.787,21.868-21.868,21.868c-12.073,0-21.86-9.787-21.86-21.868
		C105.987,157.123,115.774,147.329,127.847,147.329z M130.943,369.565c-2.069,3.402-5.81,5.682-10.086,5.682
		c-6.514,0-11.791-5.285-11.791-11.8c0-4.267,2.271-8.017,5.673-10.086c1.786-1.083,3.879-1.705,6.118-1.705
		c6.514,0,11.791,5.285,11.791,11.791C132.648,365.686,132.025,367.779,130.943,369.565z M202.301,406.877
		c0,2.48-1.915,4.477-4.267,4.477h-55.826c-2.36,0-4.267-1.996-4.267-4.477v-21.626c0-2.457,1.875-4.445,4.21-4.478h55.883
		c2.352,0,4.267,2.004,4.267,4.478V406.877z M263.808,382.907c0,2.36-1.907,4.268-4.267,4.268h-11.734v11.733
		c0,2.36-1.907,4.268-4.259,4.268h-6.045c-2.36,0-4.267-1.907-4.267-4.268v-11.733h-11.734c-2.36,0-4.267-1.907-4.267-4.268v-6.045
		c0-2.352,1.907-4.267,4.267-4.267h11.734V360.87c0-2.36,1.907-4.268,4.267-4.268h6.045c2.352,0,4.259,1.907,4.259,4.268v11.726
		h11.734c2.36,0,4.267,1.915,4.267,4.267V382.907z M266.297,335.979c0,5.891-4.776,10.667-10.667,10.667H132.85l-25.489-25.489
		v-100.03c0-1.956,0.525-3.79,1.455-5.366c1.843-3.168,5.277-5.301,9.213-5.301H255.63c1.05,0,2.061,0.153,3.014,0.436
		c3.467,1.018,6.206,3.75,7.217,7.217c0.283,0.954,0.436,1.964,0.436,3.014V335.979L266.297,335.979z"/>
	<g>
		<path d="M454.39,228.933h-121.6c-2.36,0-4.283,1.891-4.283,4.21v53.127c0,2.319,1.923,4.21,4.283,4.21h121.6
			c2.36,0,4.291-1.891,4.291-4.21v-53.127C458.682,230.824,456.75,228.933,454.39,228.933z M458.641,286.27
			c0,2.303-1.907,4.178-4.251,4.178h-121.6c-2.345,0-4.251-1.875-4.251-4.178v-53.127c0-2.303,1.906-4.178,4.251-4.178h121.6
			c2.344,0,4.251,1.875,4.251,4.178V286.27z"/>
	</g>
	<g>
		<path fill="#FFFFFF" d="M383.994,383.844H335.4c-2.367,0-4.291,1.915-4.291,4.283v18.248c0,2.359,1.924,4.282,4.291,4.282h48.594
			c2.359,0,4.282-1.923,4.282-4.282v-18.248C388.276,385.76,386.354,383.844,383.994,383.844z M388.235,406.376
			c0,2.344-1.898,4.251-4.242,4.251h-48.594c-2.344,0-4.251-1.907-4.251-4.251v-18.248c0-2.345,1.907-4.251,4.251-4.251h48.594
			c2.344,0,4.242,1.906,4.242,4.251V406.376z"/>
	</g>
	<g>
		<path fill="#FFFFFF" d="M452.499,383.844h-48.593c-2.368,0-4.291,1.915-4.291,4.283v18.248c0,2.359,1.923,4.282,4.291,4.282
			h48.593c1.592,0,2.989-0.881,3.726-2.182c0.356-0.622,0.559-1.333,0.559-2.101v-18.248
			C456.781,385.76,454.858,383.844,452.499,383.844z M456.75,406.376c0,0.751-0.194,1.455-0.549,2.068
			c-0.72,1.301-2.109,2.183-3.701,2.183h-48.594c-2.344,0-4.25-1.907-4.25-4.251v-18.248c0-2.345,1.906-4.251,4.25-4.251H452.5
			c2.344,0,4.251,1.906,4.251,4.251L456.75,406.376L456.75,406.376z"/>
	</g>
	<g>
		<path fill="#FFFFFF" d="M414.097,339.042h-23.945c-0.944,0-1.817,0.307-2.521,0.832c-1.067,0.775-1.762,2.035-1.762,3.451v1.188
			c0,2.36,1.923,4.283,4.282,4.283h23.945c2.36,0,4.283-1.923,4.283-4.283v-1.188C418.38,340.966,416.457,339.042,414.097,339.042z
			 M418.347,344.512c0,2.344-1.907,4.243-4.251,4.243H390.15c-2.344,0-4.251-1.899-4.251-4.243v-1.188
			c0-1.405,0.688-2.659,1.745-3.427c0.703-0.517,1.568-0.824,2.505-0.824h23.945c2.344,0,4.251,1.907,4.251,4.251L418.347,344.512
			L418.347,344.512z"/>
	</g>
	<g>
		<path fill="#FFFFFF" d="M452.257,339.042h-23.938c-2.367,0-4.282,1.923-4.282,4.282v1.188c0,2.359,1.915,4.283,4.282,4.283h23.938
			c2.36,0,4.291-1.924,4.291-4.283v-1.188C456.548,340.966,454.617,339.042,452.257,339.042z M456.507,344.512
			c0,2.344-1.907,4.243-4.251,4.243h-23.937c-2.344,0-4.251-1.899-4.251-4.243v-1.188c0-2.344,1.907-4.251,4.251-4.251h23.938
			c2.344,0,4.251,1.907,4.251,4.251L456.507,344.512L456.507,344.512z"/>
	</g>
	<g>
		<path fill="#FFFFFF" d="M447.399,353.976c-4.388,0-7.96,3.572-7.96,7.96c0,4.38,3.572,7.952,7.96,7.952
			c4.389,0,7.96-3.572,7.96-7.952C455.359,357.549,451.788,353.976,447.399,353.976z M447.399,369.855
			c-4.363,0-7.92-3.556-7.92-7.92c0-4.372,3.557-7.928,7.92-7.928c4.372,0,7.929,3.556,7.929,7.928
			C455.328,366.301,451.771,369.855,447.399,369.855z"/>
	</g>
	<path fill="#FFFFFF" d="M454.39,228.933h-121.6c-2.36,0-4.283,1.891-4.283,4.21v53.127c0,2.319,1.923,4.21,4.283,4.21h121.6
		c2.36,0,4.291-1.891,4.291-4.21v-53.127C458.682,230.824,456.75,228.933,454.39,228.933z M458.641,286.27
		c0,2.303-1.907,4.178-4.251,4.178h-121.6c-2.345,0-4.251-1.875-4.251-4.178v-53.127c0-2.303,1.906-4.178,4.251-4.178h121.6
		c2.344,0,4.251,1.875,4.251,4.178V286.27z M452.499,383.844h-48.593c-2.368,0-4.291,1.915-4.291,4.283v18.248
		c0,2.359,1.923,4.282,4.291,4.282h48.593c1.592,0,2.989-0.881,3.726-2.182c0.356-0.622,0.559-1.333,0.559-2.101v-18.248
		C456.781,385.76,454.858,383.844,452.499,383.844z M456.75,406.376c0,0.751-0.194,1.455-0.549,2.068
		c-0.72,1.301-2.109,2.183-3.701,2.183h-48.594c-2.344,0-4.25-1.907-4.25-4.251v-18.248c0-2.345,1.906-4.251,4.25-4.251H452.5
		c2.344,0,4.251,1.906,4.251,4.251L456.75,406.376L456.75,406.376z M452.257,339.042h-23.938c-2.367,0-4.282,1.923-4.282,4.282
		v1.188c0,2.359,1.915,4.283,4.282,4.283h23.938c2.36,0,4.291-1.924,4.291-4.283v-1.188
		C456.548,340.966,454.617,339.042,452.257,339.042z M456.507,344.512c0,2.344-1.907,4.243-4.251,4.243h-23.937
		c-2.344,0-4.251-1.899-4.251-4.243v-1.188c0-2.344,1.907-4.251,4.251-4.251h23.938c2.344,0,4.251,1.907,4.251,4.251
		L456.507,344.512L456.507,344.512z M447.399,353.976c-4.388,0-7.96,3.572-7.96,7.96c0,4.38,3.572,7.952,7.96,7.952
		c4.389,0,7.96-3.572,7.96-7.952C455.359,357.549,451.788,353.976,447.399,353.976z M447.399,369.855c-4.363,0-7.92-3.556-7.92-7.92
		c0-4.372,3.557-7.928,7.92-7.928c4.372,0,7.929,3.556,7.929,7.928C455.328,366.301,451.771,369.855,447.399,369.855z
		 M414.097,339.042h-23.945c-0.944,0-1.817,0.307-2.521,0.832c-1.067,0.775-1.762,2.035-1.762,3.451v1.188
		c0,2.36,1.923,4.283,4.282,4.283h23.945c2.36,0,4.283-1.923,4.283-4.283v-1.188C418.38,340.966,416.457,339.042,414.097,339.042z
		 M418.347,344.512c0,2.344-1.907,4.243-4.251,4.243H390.15c-2.344,0-4.251-1.899-4.251-4.243v-1.188
		c0-1.405,0.688-2.659,1.745-3.427c0.703-0.517,1.568-0.824,2.505-0.824h23.945c2.344,0,4.251,1.907,4.251,4.251L418.347,344.512
		L418.347,344.512z M383.994,383.844H335.4c-2.367,0-4.291,1.915-4.291,4.283v18.248c0,2.359,1.924,4.282,4.291,4.282h48.594
		c2.359,0,4.282-1.923,4.282-4.282v-18.248C388.276,385.76,386.354,383.844,383.994,383.844z M388.235,406.376
		c0,2.344-1.898,4.251-4.242,4.251h-48.594c-2.344,0-4.251-1.907-4.251-4.251v-18.248c0-2.345,1.907-4.251,4.251-4.251h48.594
		c2.344,0,4.242,1.906,4.242,4.251V406.376z"/>
	<path fill="#FFFFFF" d="M483.629,213.441c-0.105-0.112-0.218-0.226-0.331-0.331c-2.691-2.602-6.353-4.21-10.394-4.21h-30.709
		c-37.166-0.711-53.013-15.831-55.356-18.466c-18.967-21.813-45.514-21.813-45.514-21.813l-34.782-0.59h-0.065l-0.112,63.527
		l0.146-0.081v185.944c0,8.251,6.691,14.934,14.934,14.934h151.46c2.117,0,4.139-0.444,5.965-1.245
		c5.284-2.295,8.97-7.563,8.97-13.689V223.835C487.839,219.794,486.23,216.133,483.629,213.441z M388.276,406.376
		c0,2.359-1.923,4.282-4.282,4.282H335.4c-2.367,0-4.291-1.923-4.291-4.282v-18.248c0-2.368,1.924-4.283,4.291-4.283h48.594
		c2.359,0,4.282,1.915,4.282,4.283V406.376z M385.869,344.512v-1.188c0-1.413,0.694-2.675,1.762-3.45
		c0.703-0.525,1.576-0.832,2.521-0.832h23.945c2.36,0,4.283,1.923,4.283,4.282v1.188c0,2.359-1.923,4.283-4.283,4.283h-23.945
		C387.792,348.797,385.869,346.872,385.869,344.512z M456.781,406.376c0,0.768-0.201,1.479-0.558,2.101
		c-0.735,1.301-2.134,2.182-3.726,2.182h-48.594c-2.367,0-4.291-1.923-4.291-4.282v-18.248c0-2.368,1.924-4.283,4.291-4.283h48.594
		c2.359,0,4.283,1.915,4.283,4.283V406.376L456.781,406.376z M452.257,348.797h-23.938c-2.367,0-4.282-1.923-4.282-4.283v-1.188
		c0-2.359,1.915-4.282,4.282-4.282h23.938c2.36,0,4.291,1.923,4.291,4.282v1.188C456.548,346.872,454.617,348.797,452.257,348.797z
		 M455.359,361.936c0,4.38-3.571,7.952-7.96,7.952c-4.388,0-7.96-3.572-7.96-7.952c0-4.388,3.572-7.96,7.96-7.96
		C451.788,353.976,455.359,357.549,455.359,361.936z M458.682,286.27c0,2.319-1.932,4.21-4.291,4.21h-121.6
		c-2.36,0-4.283-1.891-4.283-4.21v-53.127c0-2.319,1.923-4.21,4.283-4.21h121.6c2.36,0,4.291,1.891,4.291,4.21V286.27z"/>
</g>
</svg>
